<?xml version="1.0" encoding="UTF-8"?>
<!DOCTYPE svg PUBLIC "-//W3C//DTD SVG 1.1//EN" "http://www.w3.org/Graphics/SVG/1.1/DTD/svg11.dtd">
<svg xmlns="http://www.w3.org/2000/svg" version="1.1" width="512px" height="512px" style="shape-rendering:geometricPrecision; text-rendering:geometricPrecision; image-rendering:optimizeQuality; fill-rule:evenodd; clip-rule:evenodd" xmlns:xlink="http://www.w3.org/1999/xlink">
<g><path style="opacity:0.989" fill="#00f9fe" d="M 224.5,71.5 C 209.74,75.7623 200.573,85.429 197,100.5C 196.5,115.163 196.333,129.83 196.5,144.5C 196.5,175.167 196.5,205.833 196.5,236.5C 196.5,260.5 196.5,284.5 196.5,308.5C 196.667,340.168 196.5,371.835 196,403.5C 188.415,429.055 171.248,440.888 144.5,439C 123.127,434.293 110.627,421.126 107,399.5C 106.025,314.812 106.358,230.146 108,145.5C 116.967,106.033 141.134,81.6997 180.5,72.5C 195.144,71.5493 209.811,71.216 224.5,71.5 Z"/></g>
<g><path style="opacity:0.993" fill="#009ad3" d="M 224.5,71.5 C 254.863,71.0645 285.196,71.5645 315.5,73C 329.754,75.7952 342.421,81.7952 353.5,91C 401.347,131.206 415.18,181.039 395,240.5C 379.564,278.936 351.397,301.436 310.5,308C 272.501,308.5 234.501,308.667 196.5,308.5C 196.5,284.5 196.5,260.5 196.5,236.5C 218.484,237.842 240.484,238.342 262.5,238C 300.846,235.002 318.012,214.502 314,176.5C 306.465,160.632 294.298,150.132 277.5,145C 250.502,144.5 223.502,144.333 196.5,144.5C 196.333,129.83 196.5,115.163 197,100.5C 200.573,85.429 209.74,75.7623 224.5,71.5 Z"/></g>
</svg>
